# xmcd
#
# Track frame offsets:
#	150
#	15100
#	29060
#	42045
#	55515
#	67840
#	82735
#	98402
#	111057
#	127357
#	142647
#	157687
#	172182
#	184612
#	196250
#	207965
#	220895
#	234050
#	245937
#	256477
#
# Disc length: 3602
#
# Revision: 2
# Processed by: cddbd v1.5.1PL0 Copyright (c) Steve Scherf et al.
# Submitted via: Audio-CD-Archiv 2.10.441
# Normalized: r1:DSETVAR1
#
DISCID=fb0e1014
DTITLE=Various Artist - Big Motown Hits and Hard-To Find Classics Volume 01
DYEAR=1900
DGENRE=blues
TTITLE0=The Originals - Baby I'm For Real
TTITLE1=The Originals - The Bells
TTITLE2=Bobby Taylor and The Vancouvers - Does Your Mama Know About Me
TTITLE3=Jimmy Ruffin - What Becomes Of The Brokenhearted
TTITLE4=Jimmy Ruffin - I've Passed This Way Before
TTITLE5=David Ruffin - Walk Away From Love
TTITLE6=David Ruffin - My Whole World Ended (The Moment You Left Me)
TTITLE7=Rare Earth - Get Ready
TTITLE8=Rare Earth - (I Know) I'm Losing You
TTITLE9=Edwin Starr - War
TTITLE10=Edwin Starr - Twenty-Five Miles
TTITLE11=Detroit Spinners - It's A Shame
TTITLE12=Detroit Spinners - I'll Always Love You
TTITLE13=The Elgins - Darling Baby
TTITLE14=The Elgins - Heaven Must Have Sent You
TTITLE15=Brenda Holloway - You've Made Me So Very Happy
TTITLE16=Brenda Holloway - Just Look What You've Done
TTITLE17=Kim Weston - Helpless
TTITLE18=Chris Clark - Love's Gone Bad
TTITLE19=Barbara Randolph - I Got A Feeling
EXTD=
EXTT0=
EXTT1=
EXTT2=
EXTT3=
EXTT4=
EXTT5=
EXTT6=
EXTT7=
EXTT8=
EXTT9=
EXTT10=
EXTT11=
EXTT12=
EXTT13=
EXTT14=
EXTT15=
EXTT16=
EXTT17=
EXTT18=
EXTT19=
PLAYORDER=
